M48
;DRILL file {KiCad (2017-05-14 revision 14bb238b3)-makepkg} date 05/30/17 16:44:03
;FORMAT={-:-/ absolute / metric / decimal}
FMAT,2
METRIC,TZ
T1C0.500
T2C0.762
T3C0.800
T4C0.900
T5C1.000
%
G90
G05
M71
T1
X47.25Y-89.25
X47.25Y-93.
X48.5Y-116.75
X49.75Y-88.
X51.Y-85.5
X51.Y-95.5
X51.Y-110.5
X52.25Y-80.5
X52.25Y-103.
X53.5Y-89.25
X53.5Y-111.75
X54.75Y-78.
X54.75Y-86.75
X56.Y-79.25
X56.Y-91.75
X56.Y-98.
X57.25Y-76.75
X57.25Y-85.5
X57.25Y-124.25
X58.5Y-105.5
X59.75Y-93.
X59.75Y-103.
X59.75Y-116.75
X61.Y-81.75
X61.Y-88.
X62.25Y-103.
X63.5Y-111.75
X63.5Y-125.5
X64.75Y-74.25
X64.75Y-80.5
X64.75Y-96.75
X66.Y-85.5
X66.Y-104.25
X66.Y-106.75
X66.Y-109.25
X66.Y-113.
X66.Y-116.75
X66.Y-119.25
X67.25Y-75.5
X67.25Y-103.
X68.5Y-81.75
X69.75Y-79.25
X69.75Y-94.25
X69.75Y-120.5
X69.75Y-125.5
X71.Y-89.25
X71.Y-100.5
X71.Y-116.75
X72.25Y-79.25
X72.25Y-99.25
X72.25Y-125.5
X73.5Y-94.25
X73.5Y-106.75
X73.5Y-119.25
X74.75Y-81.75
X74.75Y-114.25
X74.75Y-125.5
X76.Y-95.5
X77.25Y-103.
X77.25Y-125.5
X78.5Y-88.
X78.5Y-120.5
X79.75Y-109.25
X81.Y-90.5
X81.Y-120.5
X81.Y-125.5
X82.25Y-74.25
X82.25Y-100.5
X82.25Y-111.75
X83.5Y-91.75
X83.5Y-108.
X83.5Y-123.
X83.5Y-125.5
X84.75Y-89.25
X86.Y-108.
X86.Y-118.
X86.Y-125.5
X87.25Y-111.75
X88.5Y-90.5
X88.5Y-105.5
X88.5Y-120.5
X88.5Y-125.5
X89.75Y-93.
X89.75Y-109.25
X89.75Y-111.75
X91.Y-105.5
X94.75Y-86.75
X94.75Y-93.
X97.25Y-76.75
X97.25Y-106.75
X97.25Y-116.75
X98.5Y-100.5
X98.5Y-113.
X99.75Y-80.5
X99.75Y-96.75
X99.75Y-104.25
X101.Y-103.
X101.Y-109.25
X101.Y-119.25
X102.25Y-76.75
X102.25Y-80.5
X102.25Y-96.75
X102.25Y-101.75
X104.75Y-95.5
X104.75Y-111.75
X104.75Y-120.5
X106.Y-93.
X106.Y-119.25
X107.25Y-84.25
X107.25Y-95.5
X107.25Y-101.75
X107.25Y-104.25
X107.25Y-118.
X107.25Y-125.5
X108.5Y-75.5
X108.5Y-121.75
X109.75Y-94.25
X109.75Y-101.75
X109.75Y-120.5
X112.25Y-76.75
X112.25Y-109.25
X113.5Y-115.5
X113.5Y-118.
X113.5Y-124.25
X114.75Y-101.75
X114.75Y-106.75
X116.Y-103.
X117.25Y-104.25
X119.75Y-86.75
X119.75Y-111.75
X121.Y-84.25
X121.Y-101.75
X122.25Y-81.75
X122.25Y-114.25
X122.25Y-124.25
X123.5Y-93.
X124.75Y-103.
X124.75Y-120.5
X126.Y-79.25
X126.Y-86.75
X127.25Y-78.
X127.25Y-114.25
X127.25Y-118.
X128.5Y-105.5
X131.Y-105.5
X133.5Y-96.75
X133.5Y-111.75
X134.75Y-108.
X136.Y-96.75
X138.5Y-91.75
X141.Y-81.75
X141.Y-98.
X141.Y-104.25
X142.25Y-108.
X143.5Y-79.25
X143.5Y-95.5
X144.75Y-99.25
X144.75Y-108.
X146.Y-96.75
X146.Y-104.25
X147.25Y-98.
X147.25Y-105.5
X148.5Y-99.25
X148.5Y-106.75
X149.75Y-95.5
X149.75Y-105.5
X151.Y-94.25
X152.25Y-95.5
X152.25Y-103.
X153.5Y-76.75
X153.5Y-86.75
X153.5Y-94.25
X153.5Y-111.75
X154.75Y-84.25
X154.75Y-105.5
X156.Y-86.75
X156.Y-106.75
X157.25Y-105.5
X157.293Y-93.
X158.5Y-84.25
X158.5Y-104.25
X158.5Y-106.75
X159.75Y-85.5
X162.25Y-85.5
X162.25Y-99.25
X164.75Y-86.75
X164.75Y-89.25
X167.25Y-74.25
X167.25Y-80.5
X167.25Y-86.75
X167.25Y-89.25
X167.25Y-96.75
X167.25Y-99.25
X169.75Y-74.25
X169.75Y-84.25
X169.75Y-90.5
X169.75Y-96.75
X169.75Y-114.25
X171.Y-103.
X171.Y-116.75
X172.25Y-75.5
X173.5Y-114.25
X174.75Y-81.75
X174.75Y-88.
X177.25Y-73.
X177.25Y-99.25
X177.25Y-101.75
X178.5Y-94.25
X179.75Y-96.75
X179.75Y-101.75
X181.Y-90.5
X181.Y-104.25
X182.25Y-80.5
X184.75Y-84.25
X186.Y-105.5
X187.25Y-110.5
X188.5Y-111.75
X189.75Y-104.25
X189.75Y-113.
X191.Y-101.75
X193.5Y-96.75
X193.5Y-115.5
X194.75Y-88.
X194.75Y-100.5
X194.75Y-106.75
X196.Y-110.5
X197.25Y-104.25
X197.25Y-111.75
X199.75Y-81.75
X199.75Y-86.75
X199.75Y-91.75
X199.75Y-96.75
X199.75Y-111.75
X201.Y-85.5
X201.Y-113.
X202.25Y-90.5
X202.25Y-98.
X202.25Y-106.75
X203.5Y-99.25
X203.5Y-113.
X204.75Y-111.75
X206.Y-86.75
X207.25Y-89.25
X207.25Y-96.75
X207.25Y-99.25
X207.25Y-106.75
X207.25Y-111.75
X208.5Y-90.5
X209.75Y-86.75
X209.75Y-96.75
X209.75Y-99.25
X209.75Y-114.25
X213.5Y-98.
X213.5Y-119.25
X214.75Y-100.5
X214.75Y-114.25
X216.Y-101.75
X216.Y-104.25
X216.Y-106.75
X218.5Y-79.25
X218.5Y-91.75
X218.5Y-106.75
X221.Y-113.
X222.25Y-111.75
X223.5Y-88.
X223.5Y-98.
X224.75Y-100.5
X226.Y-81.75
X226.Y-106.75
X227.25Y-108.
X228.5Y-89.25
X228.5Y-98.
X228.5Y-104.25
X231.Y-96.75
X231.Y-106.75
X231.Y-111.75
X232.25Y-88.
X236.Y-105.5
X239.75Y-79.25
X239.75Y-83.
X242.25Y-100.5
X244.75Y-85.5
X244.75Y-108.
X246.Y-91.75
X249.75Y-108.
X251.Y-94.25
T2
X87.25Y-74.25
X87.25Y-89.25
X89.75Y-74.25
X89.75Y-89.25
X92.25Y-74.25
X92.25Y-89.25
X94.75Y-74.25
X94.75Y-89.25
X97.25Y-74.25
X97.25Y-89.25
X99.75Y-74.25
X99.75Y-89.25
X102.25Y-74.25
X102.25Y-89.25
X104.75Y-74.25
X104.75Y-89.25
X107.25Y-74.25
X107.25Y-89.25
X109.75Y-74.25
X109.75Y-89.25
X112.25Y-74.25
X112.25Y-89.25
X114.75Y-74.25
X114.75Y-89.25
X117.25Y-74.25
X117.25Y-89.25
X119.75Y-74.25
X119.75Y-89.25
X122.25Y-74.25
X122.25Y-89.25
X124.75Y-74.25
X124.75Y-89.25
X127.25Y-74.25
X127.25Y-89.25
X129.75Y-74.25
X129.75Y-89.25
X132.25Y-74.25
X132.25Y-89.25
X134.75Y-74.25
X134.75Y-89.25
X159.75Y-78.
X159.75Y-93.
X162.25Y-78.
X162.25Y-93.
X164.75Y-78.
X164.75Y-93.
X167.25Y-78.
X167.25Y-93.
X169.75Y-78.
X169.75Y-93.
X172.25Y-78.
X172.25Y-93.
X174.75Y-78.
X174.75Y-93.
X177.25Y-78.
X177.25Y-93.
X179.75Y-78.
X179.75Y-93.
X182.25Y-78.
X182.25Y-93.
X184.75Y-78.
X184.75Y-93.
X187.25Y-78.
X187.25Y-93.
X131.Y-101.75
X131.Y-109.25
X133.5Y-101.75
X133.5Y-109.25
X136.Y-101.75
X136.Y-109.25
X138.5Y-101.75
X138.5Y-109.25
X141.Y-101.75
X141.Y-109.25
X143.5Y-101.75
X143.5Y-109.25
X146.Y-101.75
X146.Y-109.25
X148.5Y-101.75
X148.5Y-109.25
X151.Y-101.75
X151.Y-109.25
X153.5Y-101.75
X153.5Y-109.25
X84.75Y-99.25
X84.75Y-114.25
X87.25Y-99.25
X87.25Y-114.25
X89.75Y-99.25
X89.75Y-114.25
X92.25Y-99.25
X92.25Y-114.25
X94.75Y-99.25
X94.75Y-114.25
X97.25Y-99.25
X97.25Y-114.25
X99.75Y-99.25
X99.75Y-114.25
X102.25Y-99.25
X102.25Y-114.25
X104.75Y-99.25
X104.75Y-114.25
X107.25Y-99.25
X107.25Y-114.25
X109.75Y-99.25
X109.75Y-114.25
X112.25Y-99.25
X112.25Y-114.25
X49.75Y-83.
X49.75Y-90.5
X52.25Y-83.
X52.25Y-90.5
X54.75Y-83.
X54.75Y-90.5
X57.25Y-83.
X57.25Y-90.5
X59.75Y-83.
X59.75Y-90.5
X62.25Y-83.
X62.25Y-90.5
X64.75Y-83.
X64.75Y-90.5
X67.25Y-83.
X67.25Y-90.5
X69.75Y-83.
X69.75Y-90.5
X72.25Y-83.
X72.25Y-90.5
T3
X207.25Y-104.25
X209.749Y-104.25
X47.251Y-111.75
X49.75Y-111.75
X47.25Y-106.75
X49.749Y-106.75
X47.251Y-96.75
X49.75Y-96.75
X74.751Y-91.75
X77.25Y-91.75
X47.25Y-99.25
X49.749Y-99.25
X68.5Y-95.5
X70.999Y-95.5
T4
X199.75Y-104.25
X204.75Y-104.25
X218.5Y-76.75
X218.5Y-84.25
X221.Y-76.75
X221.Y-84.25
X223.5Y-76.75
X223.5Y-84.25
X226.Y-76.75
X226.Y-84.25
X228.5Y-76.75
X228.5Y-84.25
X231.Y-76.75
X231.Y-84.25
X233.5Y-76.75
X236.Y-76.75
X236.Y-84.25
X197.25Y-109.25
X197.25Y-116.75
X199.75Y-109.25
X199.75Y-116.75
X202.25Y-109.25
X202.25Y-116.75
X204.75Y-109.25
X204.75Y-116.75
X207.25Y-109.25
X207.25Y-116.75
X209.75Y-109.25
X209.75Y-116.75
X212.25Y-109.25
X173.5Y-109.25
X173.5Y-116.75
X176.Y-109.25
X176.Y-116.75
X178.5Y-109.25
X178.5Y-116.75
X181.Y-109.25
X181.Y-116.75
X183.5Y-109.25
X183.5Y-116.75
X186.Y-109.25
X186.Y-116.75
X188.5Y-109.25
X221.Y-109.25
X221.Y-116.75
X223.5Y-109.25
X223.5Y-116.75
X226.Y-109.25
X226.Y-116.75
X228.5Y-109.25
X228.5Y-116.75
X231.Y-109.25
X231.Y-116.75
X233.5Y-109.25
X233.5Y-116.75
X236.Y-109.25
X197.25Y-94.25
X197.25Y-101.75
X199.75Y-94.25
X199.75Y-101.75
X202.25Y-94.25
X202.25Y-101.75
X204.75Y-94.25
X204.75Y-101.75
X207.25Y-94.25
X207.25Y-101.75
X209.75Y-94.25
X209.75Y-101.75
X212.25Y-94.25
X221.Y-94.25
X221.Y-101.75
X223.5Y-94.25
X223.5Y-101.75
X226.Y-94.25
X226.Y-101.75
X228.5Y-94.25
X228.5Y-101.75
X231.Y-94.25
X231.Y-101.75
X233.5Y-94.25
X233.5Y-101.75
X236.Y-94.25
X61.Y-99.25
X61.Y-101.75
X61.Y-104.25
X61.Y-106.75
X61.Y-109.25
X61.Y-111.75
X68.5Y-99.25
X68.5Y-101.75
X68.5Y-104.25
X68.5Y-106.75
X68.5Y-109.25
X68.5Y-111.75
X68.5Y-114.25
X197.25Y-76.75
X197.25Y-84.25
X199.75Y-76.75
X199.75Y-84.25
X202.25Y-76.75
X202.25Y-84.25
X204.75Y-76.75
X204.75Y-84.25
X207.25Y-76.75
X207.25Y-84.25
X209.75Y-76.75
X209.75Y-84.25
X212.25Y-76.75
X244.75Y-105.5
X244.75Y-113.
X247.25Y-105.5
X247.25Y-113.
X249.75Y-105.5
X249.75Y-113.
X252.25Y-105.5
X252.25Y-113.
X254.75Y-105.5
X254.75Y-113.
X257.25Y-105.5
X257.25Y-113.
X259.75Y-105.5
X244.75Y-93.
X244.75Y-100.5
X247.25Y-93.
X247.25Y-100.5
X249.75Y-93.
X249.75Y-100.5
X252.25Y-93.
X252.25Y-100.5
X254.75Y-93.
X254.75Y-100.5
X257.25Y-93.
X257.25Y-100.5
X259.75Y-93.
X242.25Y-80.5
X242.25Y-88.
X244.75Y-80.5
X244.75Y-88.
X247.25Y-80.5
X247.25Y-88.
X249.75Y-80.5
X249.75Y-88.
X252.25Y-80.5
X252.25Y-88.
X254.75Y-80.5
X254.75Y-88.
X257.25Y-80.5
X259.75Y-80.5
X259.75Y-88.
X44.75Y-111.75
X44.75Y-89.25
X44.75Y-86.75
X44.75Y-84.25
X44.75Y-81.75
X48.5Y-78.
X44.75Y-109.25
X44.75Y-106.75
X44.75Y-104.25
X44.75Y-101.75
X44.75Y-99.25
X44.75Y-96.75
X44.75Y-94.25
X44.75Y-91.75
T5
X233.5Y-84.25
X212.25Y-116.75
X188.5Y-116.75
X236.Y-116.75
X212.25Y-101.75
X236.Y-101.75
X61.Y-114.25
X212.25Y-84.25
X259.75Y-113.
X259.75Y-100.5
X257.25Y-88.
T0
M30
