G04 #@! TF.GenerationSoftware,KiCad,Pcbnew,(2017-05-14 revision 14bb238b3)-makepkg*
G04 #@! TF.CreationDate,2017-05-30T16:43:56+03:00*
G04 #@! TF.ProjectId,rk86kngmd,726B38366B6E676D642E6B696361645F,rev?*
G04 #@! TF.FileFunction,Soldermask,Bot*
G04 #@! TF.FilePolarity,Negative*
%FSLAX46Y46*%
G04 Gerber Fmt 4.6, Leading zero omitted, Abs format (unit mm)*
G04 Created by KiCad (PCBNEW (2017-05-14 revision 14bb238b3)-makepkg) date 05/30/17 16:43:56*
%MOMM*%
%LPD*%
G01*
G04 APERTURE LIST*
%ADD10C,0.100000*%
%ADD11C,1.500000*%
%ADD12C,1.600000*%
%ADD13R,1.500000X1.500000*%
%ADD14R,1.400000X1.400000*%
%ADD15C,1.400000*%
%ADD16R,1.500000X14.000000*%
G04 APERTURE END LIST*
D10*
D11*
X72250000Y-83000000D03*
X69750000Y-83000000D03*
X67250000Y-83000000D03*
X64750000Y-83000000D03*
X62250000Y-83000000D03*
X59750000Y-83000000D03*
X57250000Y-83000000D03*
X54750000Y-83000000D03*
X52250000Y-83000000D03*
D12*
X49750000Y-83000000D03*
D11*
X49750000Y-90500000D03*
X52250000Y-90500000D03*
X54750000Y-90500000D03*
X57250000Y-90500000D03*
X59750000Y-90500000D03*
X62250000Y-90500000D03*
X64750000Y-90500000D03*
X67250000Y-90500000D03*
X69750000Y-90500000D03*
X72250000Y-90500000D03*
D13*
X218500000Y-84250000D03*
D11*
X221000000Y-84250000D03*
X223500000Y-84250000D03*
X226000000Y-84250000D03*
X228500000Y-84250000D03*
X231000000Y-84250000D03*
X233500000Y-84250000D03*
X236000000Y-84250000D03*
X236000000Y-76750000D03*
X233500000Y-76750000D03*
X231000000Y-76750000D03*
X228500000Y-76750000D03*
X226000000Y-76750000D03*
X223500000Y-76750000D03*
X221000000Y-76750000D03*
X218500000Y-76750000D03*
D13*
X197250000Y-84250000D03*
D11*
X199750000Y-84250000D03*
X202250000Y-84250000D03*
X204750000Y-84250000D03*
X207250000Y-84250000D03*
X209750000Y-84250000D03*
X212250000Y-84250000D03*
X212250000Y-76750000D03*
X209750000Y-76750000D03*
X207250000Y-76750000D03*
X204750000Y-76750000D03*
X202250000Y-76750000D03*
X199750000Y-76750000D03*
X197250000Y-76750000D03*
X131000000Y-109250000D03*
X133500000Y-109250000D03*
X136000000Y-109250000D03*
X138500000Y-109250000D03*
X141000000Y-109250000D03*
X143500000Y-109250000D03*
X146000000Y-109250000D03*
X148500000Y-109250000D03*
X151000000Y-109250000D03*
X153500000Y-109250000D03*
X153500000Y-101750000D03*
X151000000Y-101750000D03*
X148500000Y-101750000D03*
X146000000Y-101750000D03*
X143500000Y-101750000D03*
X141000000Y-101750000D03*
X138500000Y-101750000D03*
X136000000Y-101750000D03*
X133500000Y-101750000D03*
X131000000Y-101750000D03*
X187250000Y-78000000D03*
X184750000Y-78000000D03*
X182250000Y-78000000D03*
X179750000Y-78000000D03*
X177250000Y-78000000D03*
X174750000Y-78000000D03*
X172250000Y-78000000D03*
X169750000Y-78000000D03*
X167250000Y-78000000D03*
X164750000Y-78000000D03*
X162250000Y-78000000D03*
X159750000Y-78000000D03*
X159750000Y-93000000D03*
X162250000Y-93000000D03*
X164750000Y-93000000D03*
X167250000Y-93000000D03*
X169750000Y-93000000D03*
X172250000Y-93000000D03*
X174750000Y-93000000D03*
X177250000Y-93000000D03*
X179750000Y-93000000D03*
X182250000Y-93000000D03*
X184750000Y-93000000D03*
X187250000Y-93000000D03*
X49749360Y-99250000D03*
X47250000Y-99250000D03*
D14*
X204750000Y-104250000D03*
D15*
X199750000Y-104250000D03*
D11*
X44750000Y-109250000D03*
X44750000Y-104250000D03*
X44750000Y-96750000D03*
X44750000Y-89250000D03*
X44750000Y-84250000D03*
X44750000Y-81750000D03*
X44750000Y-111750000D03*
X44750000Y-106750000D03*
X44750000Y-101750000D03*
X44750000Y-99250000D03*
X44750000Y-94250000D03*
X44750000Y-91750000D03*
X44750000Y-86750000D03*
X49749360Y-106750000D03*
X47250000Y-106750000D03*
X49750000Y-111750000D03*
X47250640Y-111750000D03*
X74750640Y-91750000D03*
X77250000Y-91750000D03*
X49750000Y-96750000D03*
X47250640Y-96750000D03*
X70999360Y-95500000D03*
X68500000Y-95500000D03*
D13*
X197250000Y-101750000D03*
D11*
X199750000Y-101750000D03*
X202250000Y-101750000D03*
X204750000Y-101750000D03*
X207250000Y-101750000D03*
X209750000Y-101750000D03*
X212250000Y-101750000D03*
X212250000Y-94250000D03*
X209750000Y-94250000D03*
X207250000Y-94250000D03*
X204750000Y-94250000D03*
X202250000Y-94250000D03*
X199750000Y-94250000D03*
X197250000Y-94250000D03*
D13*
X173500000Y-116750000D03*
D11*
X176000000Y-116750000D03*
X178500000Y-116750000D03*
X181000000Y-116750000D03*
X183500000Y-116750000D03*
X186000000Y-116750000D03*
X188500000Y-116750000D03*
X188500000Y-109250000D03*
X186000000Y-109250000D03*
X183500000Y-109250000D03*
X181000000Y-109250000D03*
X178500000Y-109250000D03*
X176000000Y-109250000D03*
X173500000Y-109250000D03*
D13*
X197250000Y-116750000D03*
D11*
X199750000Y-116750000D03*
X202250000Y-116750000D03*
X204750000Y-116750000D03*
X207250000Y-116750000D03*
X209750000Y-116750000D03*
X212250000Y-116750000D03*
X212250000Y-109250000D03*
X209750000Y-109250000D03*
X207250000Y-109250000D03*
X204750000Y-109250000D03*
X202250000Y-109250000D03*
X199750000Y-109250000D03*
X197250000Y-109250000D03*
D13*
X242250000Y-88000000D03*
D11*
X244750000Y-88000000D03*
X247250000Y-88000000D03*
X249750000Y-88000000D03*
X252250000Y-88000000D03*
X254750000Y-88000000D03*
X257250000Y-88000000D03*
X259750000Y-88000000D03*
X259750000Y-80500000D03*
X257250000Y-80500000D03*
X254750000Y-80500000D03*
X252250000Y-80500000D03*
X249750000Y-80500000D03*
X247250000Y-80500000D03*
X244750000Y-80500000D03*
X242250000Y-80500000D03*
D13*
X244750000Y-100500000D03*
D11*
X247250000Y-100500000D03*
X249750000Y-100500000D03*
X252250000Y-100500000D03*
X254750000Y-100500000D03*
X257250000Y-100500000D03*
X259750000Y-100500000D03*
X259750000Y-93000000D03*
X257250000Y-93000000D03*
X254750000Y-93000000D03*
X252250000Y-93000000D03*
X249750000Y-93000000D03*
X247250000Y-93000000D03*
X244750000Y-93000000D03*
D13*
X244750000Y-113000000D03*
D11*
X247250000Y-113000000D03*
X249750000Y-113000000D03*
X252250000Y-113000000D03*
X254750000Y-113000000D03*
X257250000Y-113000000D03*
X259750000Y-113000000D03*
X259750000Y-105500000D03*
X257250000Y-105500000D03*
X254750000Y-105500000D03*
X252250000Y-105500000D03*
X249750000Y-105500000D03*
X247250000Y-105500000D03*
X244750000Y-105500000D03*
D13*
X221000000Y-116750000D03*
D11*
X223500000Y-116750000D03*
X226000000Y-116750000D03*
X228500000Y-116750000D03*
X231000000Y-116750000D03*
X233500000Y-116750000D03*
X236000000Y-116750000D03*
X236000000Y-109250000D03*
X233500000Y-109250000D03*
X231000000Y-109250000D03*
X228500000Y-109250000D03*
X226000000Y-109250000D03*
X223500000Y-109250000D03*
X221000000Y-109250000D03*
D13*
X221000000Y-101750000D03*
D11*
X223500000Y-101750000D03*
X226000000Y-101750000D03*
X228500000Y-101750000D03*
X231000000Y-101750000D03*
X233500000Y-101750000D03*
X236000000Y-101750000D03*
X236000000Y-94250000D03*
X233500000Y-94250000D03*
X231000000Y-94250000D03*
X228500000Y-94250000D03*
X226000000Y-94250000D03*
X223500000Y-94250000D03*
X221000000Y-94250000D03*
X209749360Y-104250000D03*
X207250000Y-104250000D03*
D13*
X61000000Y-99250000D03*
D11*
X61000000Y-101750000D03*
X61000000Y-104250000D03*
X61000000Y-106750000D03*
X61000000Y-109250000D03*
X61000000Y-111750000D03*
X61000000Y-114250000D03*
X68500000Y-114250000D03*
X68500000Y-111750000D03*
X68500000Y-109250000D03*
X68500000Y-106750000D03*
X68500000Y-104250000D03*
X68500000Y-101750000D03*
X68500000Y-99250000D03*
D16*
X87250000Y-134250000D03*
X82250000Y-134250000D03*
X84750000Y-134250000D03*
X97250000Y-134250000D03*
X92250000Y-134250000D03*
X94750000Y-134250000D03*
X89750000Y-134250000D03*
X79750000Y-134250000D03*
X72250000Y-134250000D03*
X67250000Y-134250000D03*
X77250000Y-134250000D03*
X69750000Y-134250000D03*
X74750000Y-134250000D03*
X109750000Y-134250000D03*
X99750000Y-134250000D03*
X107250000Y-134250000D03*
X102250000Y-134250000D03*
X104750000Y-134250000D03*
X52250000Y-134250000D03*
X54750000Y-134250000D03*
X59750000Y-134250000D03*
X64750000Y-134250000D03*
X62250000Y-134250000D03*
X49750000Y-134250000D03*
X57250000Y-134250000D03*
X122250000Y-134250000D03*
X119750000Y-134250000D03*
X114750000Y-134250000D03*
X117250000Y-134250000D03*
X112250000Y-134250000D03*
D11*
X84750000Y-114250000D03*
X87250000Y-114250000D03*
X89750000Y-114250000D03*
X92250000Y-114250000D03*
X94750000Y-114250000D03*
X97250000Y-114250000D03*
X99750000Y-114250000D03*
X102250000Y-114250000D03*
X104750000Y-114250000D03*
X107250000Y-114250000D03*
X109750000Y-114250000D03*
X112250000Y-114250000D03*
X112250000Y-99250000D03*
X109750000Y-99250000D03*
X107250000Y-99250000D03*
X104750000Y-99250000D03*
X102250000Y-99250000D03*
X99750000Y-99250000D03*
X97250000Y-99250000D03*
X94750000Y-99250000D03*
X92250000Y-99250000D03*
X89750000Y-99250000D03*
X87250000Y-99250000D03*
X84750000Y-99250000D03*
X48500000Y-78000000D03*
X134750000Y-74250000D03*
X132250000Y-74250000D03*
X129750000Y-74250000D03*
X127250000Y-74250000D03*
X124750000Y-74250000D03*
X122250000Y-74250000D03*
X119750000Y-74250000D03*
X117250000Y-74250000D03*
X114750000Y-74250000D03*
X112250000Y-74250000D03*
X109750000Y-74250000D03*
X107250000Y-74250000D03*
X104750000Y-74250000D03*
X102250000Y-74250000D03*
X99750000Y-74250000D03*
X97250000Y-74250000D03*
X94750000Y-74250000D03*
X92250000Y-74250000D03*
X89750000Y-74250000D03*
X87250000Y-74250000D03*
X87250000Y-89250000D03*
X89750000Y-89250000D03*
X92250000Y-89250000D03*
X94750000Y-89250000D03*
X97250000Y-89250000D03*
X99750000Y-89250000D03*
X102250000Y-89250000D03*
X104750000Y-89250000D03*
X107250000Y-89250000D03*
X109750000Y-89250000D03*
X112250000Y-89250000D03*
X114750000Y-89250000D03*
X117250000Y-89250000D03*
X119750000Y-89250000D03*
X122250000Y-89250000D03*
X124750000Y-89250000D03*
X127250000Y-89250000D03*
X129750000Y-89250000D03*
X132250000Y-89250000D03*
X134750000Y-89250000D03*
M02*
