G04 #@! TF.FileFunction,Copper,L1,Top,Signal*
%FSLAX45Y45*%
G04 Gerber Fmt 4.5, Leading zero omitted, Abs format (unit mm)*
G04 Created by KiCad (PCBNEW 4.0.5-e0-6337~49~ubuntu16.04.1) date Sat Jan 14 19:35:42 2017*
%MOMM*%
%LPD*%
G01*
G04 APERTURE LIST*
%ADD10C,0.100000*%
%ADD11C,1.500000*%
%ADD12C,1.600000*%
%ADD13R,1.500000X1.500000*%
%ADD14R,1.400000X1.400000*%
%ADD15C,1.400000*%
%ADD16R,1.500000X14.000000*%
%ADD17C,1.000000*%
%ADD18C,0.350000*%
%ADD19C,0.500000*%
G04 APERTURE END LIST*
D10*
D11*
X7225000Y-8300000D03*
X6975000Y-8300000D03*
X6725000Y-8300000D03*
X6475000Y-8300000D03*
X6225000Y-8300000D03*
X5975000Y-8300000D03*
X5725000Y-8300000D03*
X5475000Y-8300000D03*
X5225000Y-8300000D03*
D12*
X4975000Y-8300000D03*
D11*
X4975000Y-9050000D03*
X5225000Y-9050000D03*
X5475000Y-9050000D03*
X5725000Y-9050000D03*
X5975000Y-9050000D03*
X6225000Y-9050000D03*
X6475000Y-9050000D03*
X6725000Y-9050000D03*
X6975000Y-9050000D03*
X7225000Y-9050000D03*
D13*
X21850000Y-8425000D03*
D11*
X22100000Y-8425000D03*
X22350000Y-8425000D03*
X22600000Y-8425000D03*
X22850000Y-8425000D03*
X23100000Y-8425000D03*
X23350000Y-8425000D03*
X23600000Y-8425000D03*
X23600000Y-7675000D03*
X23350000Y-7675000D03*
X23100000Y-7675000D03*
X22850000Y-7675000D03*
X22600000Y-7675000D03*
X22350000Y-7675000D03*
X22100000Y-7675000D03*
X21850000Y-7675000D03*
D13*
X19725000Y-8425000D03*
D11*
X19975000Y-8425000D03*
X20225000Y-8425000D03*
X20475000Y-8425000D03*
X20725000Y-8425000D03*
X20975000Y-8425000D03*
X21225000Y-8425000D03*
X21225000Y-7675000D03*
X20975000Y-7675000D03*
X20725000Y-7675000D03*
X20475000Y-7675000D03*
X20225000Y-7675000D03*
X19975000Y-7675000D03*
X19725000Y-7675000D03*
X13100000Y-10925000D03*
X13350000Y-10925000D03*
X13600000Y-10925000D03*
X13850000Y-10925000D03*
X14100000Y-10925000D03*
X14350000Y-10925000D03*
X14600000Y-10925000D03*
X14850000Y-10925000D03*
X15100000Y-10925000D03*
X15350000Y-10925000D03*
X15350000Y-10175000D03*
X15100000Y-10175000D03*
X14850000Y-10175000D03*
X14600000Y-10175000D03*
X14350000Y-10175000D03*
X14100000Y-10175000D03*
X13850000Y-10175000D03*
X13600000Y-10175000D03*
X13350000Y-10175000D03*
X13100000Y-10175000D03*
X18725000Y-7800000D03*
X18475000Y-7800000D03*
X18225000Y-7800000D03*
X17975000Y-7800000D03*
X17725000Y-7800000D03*
X17475000Y-7800000D03*
X17225000Y-7800000D03*
X16975000Y-7800000D03*
X16725000Y-7800000D03*
X16475000Y-7800000D03*
X16225000Y-7800000D03*
X15975000Y-7800000D03*
X15975000Y-9300000D03*
X16225000Y-9300000D03*
X16475000Y-9300000D03*
X16725000Y-9300000D03*
X16975000Y-9300000D03*
X17225000Y-9300000D03*
X17475000Y-9300000D03*
X17725000Y-9300000D03*
X17975000Y-9300000D03*
X18225000Y-9300000D03*
X18475000Y-9300000D03*
X18725000Y-9300000D03*
X4974936Y-9925000D03*
X4725000Y-9925000D03*
D14*
X20475000Y-10425000D03*
D15*
X19975000Y-10425000D03*
D11*
X4475000Y-10925000D03*
X4475000Y-10425000D03*
X4475000Y-9675000D03*
X4475000Y-8925000D03*
X4475000Y-8425000D03*
X4475000Y-8175000D03*
X4475000Y-11175000D03*
X4475000Y-10675000D03*
X4475000Y-10175000D03*
X4475000Y-9925000D03*
X4475000Y-9425000D03*
X4475000Y-9175000D03*
X4475000Y-8675000D03*
X4974936Y-10675000D03*
X4725000Y-10675000D03*
X4975000Y-11175000D03*
X4725064Y-11175000D03*
X7475064Y-9175000D03*
X7725000Y-9175000D03*
X4975000Y-9675000D03*
X4725064Y-9675000D03*
X7099936Y-9550000D03*
X6850000Y-9550000D03*
D13*
X19725000Y-10175000D03*
D11*
X19975000Y-10175000D03*
X20225000Y-10175000D03*
X20475000Y-10175000D03*
X20725000Y-10175000D03*
X20975000Y-10175000D03*
X21225000Y-10175000D03*
X21225000Y-9425000D03*
X20975000Y-9425000D03*
X20725000Y-9425000D03*
X20475000Y-9425000D03*
X20225000Y-9425000D03*
X19975000Y-9425000D03*
X19725000Y-9425000D03*
D13*
X17350000Y-11675000D03*
D11*
X17600000Y-11675000D03*
X17850000Y-11675000D03*
X18100000Y-11675000D03*
X18350000Y-11675000D03*
X18600000Y-11675000D03*
X18850000Y-11675000D03*
X18850000Y-10925000D03*
X18600000Y-10925000D03*
X18350000Y-10925000D03*
X18100000Y-10925000D03*
X17850000Y-10925000D03*
X17600000Y-10925000D03*
X17350000Y-10925000D03*
D13*
X19725000Y-11675000D03*
D11*
X19975000Y-11675000D03*
X20225000Y-11675000D03*
X20475000Y-11675000D03*
X20725000Y-11675000D03*
X20975000Y-11675000D03*
X21225000Y-11675000D03*
X21225000Y-10925000D03*
X20975000Y-10925000D03*
X20725000Y-10925000D03*
X20475000Y-10925000D03*
X20225000Y-10925000D03*
X19975000Y-10925000D03*
X19725000Y-10925000D03*
D13*
X24225000Y-8800000D03*
D11*
X24475000Y-8800000D03*
X24725000Y-8800000D03*
X24975000Y-8800000D03*
X25225000Y-8800000D03*
X25475000Y-8800000D03*
X25725000Y-8800000D03*
X25975000Y-8800000D03*
X25975000Y-8050000D03*
X25725000Y-8050000D03*
X25475000Y-8050000D03*
X25225000Y-8050000D03*
X24975000Y-8050000D03*
X24725000Y-8050000D03*
X24475000Y-8050000D03*
X24225000Y-8050000D03*
D13*
X24475000Y-10050000D03*
D11*
X24725000Y-10050000D03*
X24975000Y-10050000D03*
X25225000Y-10050000D03*
X25475000Y-10050000D03*
X25725000Y-10050000D03*
X25975000Y-10050000D03*
X25975000Y-9300000D03*
X25725000Y-9300000D03*
X25475000Y-9300000D03*
X25225000Y-9300000D03*
X24975000Y-9300000D03*
X24725000Y-9300000D03*
X24475000Y-9300000D03*
D13*
X24475000Y-11300000D03*
D11*
X24725000Y-11300000D03*
X24975000Y-11300000D03*
X25225000Y-11300000D03*
X25475000Y-11300000D03*
X25725000Y-11300000D03*
X25975000Y-11300000D03*
X25975000Y-10550000D03*
X25725000Y-10550000D03*
X25475000Y-10550000D03*
X25225000Y-10550000D03*
X24975000Y-10550000D03*
X24725000Y-10550000D03*
X24475000Y-10550000D03*
D13*
X22100000Y-11675000D03*
D11*
X22350000Y-11675000D03*
X22600000Y-11675000D03*
X22850000Y-11675000D03*
X23100000Y-11675000D03*
X23350000Y-11675000D03*
X23600000Y-11675000D03*
X23600000Y-10925000D03*
X23350000Y-10925000D03*
X23100000Y-10925000D03*
X22850000Y-10925000D03*
X22600000Y-10925000D03*
X22350000Y-10925000D03*
X22100000Y-10925000D03*
D13*
X22100000Y-10175000D03*
D11*
X22350000Y-10175000D03*
X22600000Y-10175000D03*
X22850000Y-10175000D03*
X23100000Y-10175000D03*
X23350000Y-10175000D03*
X23600000Y-10175000D03*
X23600000Y-9425000D03*
X23350000Y-9425000D03*
X23100000Y-9425000D03*
X22850000Y-9425000D03*
X22600000Y-9425000D03*
X22350000Y-9425000D03*
X22100000Y-9425000D03*
X20974936Y-10425000D03*
X20725000Y-10425000D03*
D13*
X6100000Y-9925000D03*
D11*
X6100000Y-10175000D03*
X6100000Y-10425000D03*
X6100000Y-10675000D03*
X6100000Y-10925000D03*
X6100000Y-11175000D03*
X6100000Y-11425000D03*
X6850000Y-11425000D03*
X6850000Y-11175000D03*
X6850000Y-10925000D03*
X6850000Y-10675000D03*
X6850000Y-10425000D03*
X6850000Y-10175000D03*
X6850000Y-9925000D03*
D16*
X4975000Y-13425000D03*
X5225000Y-13425000D03*
X5475000Y-13425000D03*
X5725000Y-13425000D03*
X5975000Y-13425000D03*
X6225000Y-13425000D03*
X6475000Y-13425000D03*
X6725000Y-13425000D03*
X6975000Y-13425000D03*
X7225000Y-13425000D03*
X7475000Y-13425000D03*
X7725000Y-13425000D03*
X7975000Y-13425000D03*
X8225000Y-13425000D03*
X8475000Y-13425000D03*
X8725000Y-13425000D03*
X8975000Y-13425000D03*
X9225000Y-13425000D03*
X9475000Y-13425000D03*
X9725000Y-13425000D03*
X9975000Y-13425000D03*
X10225000Y-13425000D03*
X10475000Y-13425000D03*
X10725000Y-13425000D03*
X10975000Y-13425000D03*
X11225000Y-13425000D03*
X11475000Y-13425000D03*
X11725000Y-13425000D03*
X11975000Y-13425000D03*
X12225000Y-13425000D03*
D11*
X8475000Y-11425000D03*
X8725000Y-11425000D03*
X8975000Y-11425000D03*
X9225000Y-11425000D03*
X9475000Y-11425000D03*
X9725000Y-11425000D03*
X9975000Y-11425000D03*
X10225000Y-11425000D03*
X10475000Y-11425000D03*
X10725000Y-11425000D03*
X10975000Y-11425000D03*
X11225000Y-11425000D03*
X11225000Y-9925000D03*
X10975000Y-9925000D03*
X10725000Y-9925000D03*
X10475000Y-9925000D03*
X10225000Y-9925000D03*
X9975000Y-9925000D03*
X9725000Y-9925000D03*
X9475000Y-9925000D03*
X9225000Y-9925000D03*
X8975000Y-9925000D03*
X8725000Y-9925000D03*
X8475000Y-9925000D03*
X4850000Y-7800000D03*
X13475000Y-7425000D03*
X13225000Y-7425000D03*
X12975000Y-7425000D03*
X12725000Y-7425000D03*
X12475000Y-7425000D03*
X12225000Y-7425000D03*
X11975000Y-7425000D03*
X11725000Y-7425000D03*
X11475000Y-7425000D03*
X11225000Y-7425000D03*
X10975000Y-7425000D03*
X10725000Y-7425000D03*
X10475000Y-7425000D03*
X10225000Y-7425000D03*
X9975000Y-7425000D03*
X9725000Y-7425000D03*
X9475000Y-7425000D03*
X9225000Y-7425000D03*
X8975000Y-7425000D03*
X8725000Y-7425000D03*
X8725000Y-8925000D03*
X8975000Y-8925000D03*
X9225000Y-8925000D03*
X9475000Y-8925000D03*
X9725000Y-8925000D03*
X9975000Y-8925000D03*
X10225000Y-8925000D03*
X10475000Y-8925000D03*
X10725000Y-8925000D03*
X10975000Y-8925000D03*
X11225000Y-8925000D03*
X11475000Y-8925000D03*
X11725000Y-8925000D03*
X11975000Y-8925000D03*
X12225000Y-8925000D03*
X12475000Y-8925000D03*
X12725000Y-8925000D03*
X12975000Y-8925000D03*
X13225000Y-8925000D03*
X13475000Y-8925000D03*
D17*
X16725000Y-7425000D03*
X17225000Y-7550000D03*
X17725000Y-7300000D03*
X12725000Y-7800000D03*
X7475000Y-11425000D03*
X7475000Y-8175000D03*
X12225000Y-8175000D03*
X17975000Y-9675000D03*
X12725000Y-11425000D03*
X16975000Y-11425000D03*
X16975000Y-9675000D03*
X17475000Y-8800000D03*
X16975000Y-9050000D03*
X16475000Y-8925000D03*
X4850000Y-11675000D03*
X12100000Y-8425000D03*
X12225000Y-11425000D03*
X12225000Y-12425000D03*
X20100000Y-11300000D03*
X15475000Y-8425000D03*
X15350000Y-11175000D03*
X18850000Y-11175000D03*
X11975000Y-8675000D03*
X23600000Y-10550000D03*
X10725000Y-12550000D03*
X22350000Y-9800000D03*
X21350000Y-9800000D03*
X21350000Y-11925000D03*
X12350000Y-9300000D03*
X10600000Y-11925000D03*
X10600000Y-9300000D03*
X9475000Y-9300000D03*
X8225000Y-7425000D03*
X5225000Y-8050000D03*
X5100000Y-8550000D03*
X6475000Y-7425000D03*
X8975000Y-9300000D03*
X4725000Y-8925000D03*
X4725000Y-9300000D03*
X5975000Y-9300000D03*
X5975000Y-10300000D03*
X8850000Y-10550000D03*
X8850000Y-9050000D03*
X8350000Y-9175000D03*
X8350000Y-10800000D03*
X12475000Y-12050000D03*
X10975000Y-12050000D03*
X12475000Y-10300000D03*
X15225000Y-10300000D03*
X15225000Y-9550000D03*
X7100000Y-8925000D03*
X7225000Y-7925000D03*
X19975000Y-11175000D03*
X19725000Y-11175000D03*
X23975000Y-8300000D03*
X23975000Y-7925000D03*
X21850000Y-7925000D03*
X18225000Y-8050000D03*
X17850000Y-9425000D03*
X15350000Y-9425000D03*
X15350000Y-8675000D03*
X12600000Y-8675000D03*
X12600000Y-7925000D03*
X5350000Y-8925000D03*
X5350000Y-11175000D03*
X4975000Y-8800000D03*
X14225000Y-10800000D03*
X14350000Y-7925000D03*
X14100000Y-8175000D03*
X17475000Y-8175000D03*
X14600000Y-10425000D03*
X15850000Y-10425000D03*
X15850000Y-8425000D03*
X16975000Y-8425000D03*
X14850000Y-10675000D03*
X15600000Y-10675000D03*
X15600000Y-8675000D03*
X16475000Y-8675000D03*
X16225000Y-9925000D03*
X14850000Y-9925000D03*
X16725000Y-9675000D03*
X14600000Y-9675000D03*
X13850000Y-9175000D03*
X18475000Y-8425000D03*
X18100000Y-10425000D03*
X18100000Y-9050000D03*
X20225000Y-9050000D03*
X7225000Y-9925000D03*
X5100000Y-11050000D03*
X22225000Y-11175000D03*
X18725000Y-11050000D03*
X12100000Y-10175000D03*
X9850000Y-10050000D03*
X19975000Y-8175000D03*
X5600000Y-7925000D03*
X6975000Y-7925000D03*
X5600000Y-9175000D03*
X5600000Y-9800000D03*
X5100000Y-9550000D03*
X5225000Y-10300000D03*
X5850000Y-10550000D03*
X6975000Y-9425000D03*
X22350000Y-8800000D03*
X24225000Y-10050000D03*
X19350000Y-11550000D03*
X19350000Y-9675000D03*
X22475000Y-10050000D03*
X19975000Y-9675000D03*
X22600000Y-8175000D03*
X24475000Y-10800000D03*
X24975000Y-10800000D03*
X20975000Y-9925000D03*
X20725000Y-9925000D03*
X21600000Y-10675000D03*
X21600000Y-10425000D03*
X25100000Y-9425000D03*
X24600000Y-9175000D03*
X23100000Y-9675000D03*
X20975000Y-9675000D03*
X23225000Y-8800000D03*
X24475000Y-8550000D03*
X22850000Y-9800000D03*
X22725000Y-10800000D03*
X20725000Y-11175000D03*
X20475000Y-11175000D03*
X20725000Y-10675000D03*
X20225000Y-10675000D03*
X20850000Y-9050000D03*
X20975000Y-11425000D03*
X22600000Y-10675000D03*
X23100000Y-10675000D03*
X19100000Y-10175000D03*
X17975000Y-10175000D03*
X6350000Y-11175000D03*
X11350000Y-11550000D03*
X17350000Y-11425000D03*
X23100000Y-11175000D03*
X22850000Y-10425000D03*
X13475000Y-10800000D03*
X8600000Y-10800000D03*
X8225000Y-10050000D03*
X6850000Y-8175000D03*
X6100000Y-8175000D03*
X7100000Y-10050000D03*
X19475000Y-10675000D03*
X15850000Y-10675000D03*
X15475000Y-10550000D03*
X14975000Y-10550000D03*
X14975000Y-9550000D03*
X13600000Y-9675000D03*
X19600000Y-11050000D03*
X20975000Y-8675000D03*
X20600000Y-8675000D03*
X21600000Y-10175000D03*
X6100000Y-8800000D03*
X22850000Y-8925000D03*
X16725000Y-9925000D03*
X19475000Y-10050000D03*
X12850000Y-10550000D03*
X9100000Y-10550000D03*
X8475000Y-8925000D03*
X19475000Y-8800000D03*
X6225000Y-10300000D03*
X6725000Y-10300000D03*
X6600000Y-10425000D03*
X6600000Y-8550000D03*
X15975000Y-8550000D03*
X16725000Y-8925000D03*
X20725000Y-8925000D03*
X6600000Y-10675000D03*
X6600000Y-10925000D03*
X16975000Y-7425000D03*
X15350000Y-7675000D03*
X11225000Y-7675000D03*
X18600000Y-10550000D03*
X15725000Y-10550000D03*
X15729289Y-9300000D03*
X20350000Y-11300000D03*
X22100000Y-11300000D03*
X20350000Y-9925000D03*
X17725000Y-10175000D03*
X17725000Y-9925000D03*
X6725000Y-7550000D03*
X19975000Y-9175000D03*
X19975000Y-8675000D03*
X16725000Y-8675000D03*
X16725000Y-8050000D03*
X10225000Y-7675000D03*
X10225000Y-8050000D03*
X21850000Y-9175000D03*
X21850000Y-10675000D03*
X9850000Y-11300000D03*
X6600000Y-11300000D03*
X6600000Y-11675000D03*
X5975000Y-11675000D03*
X9975000Y-9675000D03*
X6475000Y-9675000D03*
X6350000Y-12550000D03*
X10725000Y-8425000D03*
X5725000Y-8550000D03*
X5475000Y-7800000D03*
X9975000Y-8050000D03*
X6475000Y-8050000D03*
X5725000Y-7675000D03*
X9725000Y-7675000D03*
X5475000Y-8675000D03*
X9475000Y-8675000D03*
X19725000Y-10425000D03*
X8100000Y-9050000D03*
X21475000Y-11425000D03*
X21475000Y-10050000D03*
X18975000Y-10425000D03*
X18975000Y-11300000D03*
X8975000Y-11175000D03*
X20225000Y-9800000D03*
X11600000Y-10300000D03*
X9975000Y-10425000D03*
X10225000Y-10175000D03*
X10725000Y-10175000D03*
X10850000Y-7550000D03*
X10100000Y-10300000D03*
X7725000Y-10300000D03*
X7725000Y-12550000D03*
X10225000Y-9675000D03*
X13350000Y-9675000D03*
X10475000Y-9550000D03*
X7600000Y-9550000D03*
X7475000Y-12550000D03*
X14100000Y-9800000D03*
X10725000Y-9550000D03*
X14350000Y-9550000D03*
X7350000Y-9425000D03*
X7225000Y-12550000D03*
X7850000Y-12050000D03*
X6975000Y-12050000D03*
X6975000Y-12550000D03*
X7850000Y-8800000D03*
X10975000Y-9425000D03*
X15100000Y-9425000D03*
X10100000Y-10925000D03*
X10100000Y-11925000D03*
X8100000Y-12050000D03*
X8100000Y-12550000D03*
X11225000Y-10925000D03*
X14475000Y-10800000D03*
X14475000Y-9925000D03*
X11475000Y-10675000D03*
X8350000Y-12300000D03*
X10850000Y-12175000D03*
X8350000Y-12550000D03*
X10975000Y-10175000D03*
X11475000Y-10175000D03*
X8600000Y-12550000D03*
X14100000Y-10425000D03*
X11725000Y-10425000D03*
X10725000Y-10425000D03*
X8600000Y-11800000D03*
X10725000Y-11800000D03*
X8850000Y-12050000D03*
X8850000Y-12550000D03*
X11975000Y-11175000D03*
X13350000Y-11175000D03*
X10475000Y-11175000D03*
X10475000Y-12050000D03*
X20100000Y-8550000D03*
X16225000Y-8550000D03*
X20725000Y-9675000D03*
X13100000Y-10550000D03*
X14725000Y-10550000D03*
X14725000Y-9800000D03*
X17100000Y-10300000D03*
X17100000Y-11675000D03*
X7100000Y-11675000D03*
X9725000Y-11675000D03*
X7350000Y-10675000D03*
X9725000Y-10675000D03*
X7350000Y-11925000D03*
X6600000Y-11925000D03*
X7975000Y-10925000D03*
X8975000Y-10925000D03*
X8225000Y-11175000D03*
X8725000Y-11175000D03*
X12725000Y-11800000D03*
X11350000Y-11800000D03*
X11350000Y-12425000D03*
X5725000Y-12425000D03*
D18*
X16725000Y-7800000D02*
X16725000Y-7425000D01*
X17225000Y-7800000D02*
X17225000Y-7550000D01*
X17725000Y-7800000D02*
X17725000Y-7300000D01*
X12725000Y-7425000D02*
X12725000Y-7800000D01*
X7475000Y-9425000D02*
X7475000Y-11425000D01*
X7600000Y-9300000D02*
X7475000Y-9425000D01*
X7600000Y-8925000D02*
X7600000Y-9300000D01*
X7475000Y-8800000D02*
X7600000Y-8925000D01*
X7475000Y-8175000D02*
X7475000Y-8800000D01*
X12225000Y-7425000D02*
X12225000Y-8175000D01*
X12725000Y-8925000D02*
X12725000Y-11425000D01*
X16975000Y-9675000D02*
X16975000Y-11425000D01*
X17975000Y-9300000D02*
X17975000Y-9675000D01*
X17475000Y-8800000D02*
X17475000Y-9300000D01*
X16975000Y-9050000D02*
X16975000Y-9300000D01*
X16475000Y-9300000D02*
X16475000Y-8925000D01*
D19*
X12225000Y-11425000D02*
X12225000Y-12425000D01*
X4850000Y-8425000D02*
X4850000Y-11675000D01*
X4975000Y-8300000D02*
X4850000Y-8425000D01*
X11975000Y-8675000D02*
X11975000Y-8425000D01*
X11975000Y-8425000D02*
X11975000Y-7425000D01*
X12100000Y-8425000D02*
X11975000Y-8425000D01*
X12225000Y-12425000D02*
X12225000Y-8925000D01*
X20100000Y-11550000D02*
X20100000Y-11300000D01*
X19975000Y-11675000D02*
X20100000Y-11550000D01*
X19850000Y-10550000D02*
X19975000Y-10425000D01*
X19850000Y-11300000D02*
X19850000Y-10550000D01*
X19975000Y-11425000D02*
X19850000Y-11300000D01*
X19975000Y-11675000D02*
X19975000Y-11425000D01*
X21225000Y-11425000D02*
X21225000Y-11675000D01*
X21100000Y-11300000D02*
X21225000Y-11425000D01*
X21100000Y-10550000D02*
X21100000Y-11300000D01*
X21225000Y-10175000D02*
X21225000Y-10425000D01*
X21225000Y-10050000D02*
X21225000Y-10175000D01*
X21225000Y-8425000D02*
X21225000Y-8675000D01*
X23600000Y-11425000D02*
X23600000Y-11675000D01*
X25975000Y-8050000D02*
X25975000Y-8800000D01*
X25600000Y-9425000D02*
X25475000Y-9300000D01*
X25600000Y-10425000D02*
X25600000Y-9425000D01*
X25475000Y-10550000D02*
X25600000Y-10425000D01*
X23850000Y-8425000D02*
X24225000Y-8800000D01*
X23725000Y-8425000D02*
X23850000Y-8425000D01*
X23725000Y-8425000D02*
X23600000Y-8425000D01*
X23725000Y-7800000D02*
X23725000Y-8425000D01*
X24475000Y-7800000D02*
X23725000Y-7800000D01*
X24475000Y-8050000D02*
X24475000Y-7800000D01*
X25975000Y-8050000D02*
X25725000Y-8050000D01*
X25725000Y-8300000D02*
X25725000Y-8050000D01*
X25600000Y-8425000D02*
X25725000Y-8300000D01*
X25600000Y-9175000D02*
X25600000Y-8425000D01*
X25475000Y-9300000D02*
X25600000Y-9175000D01*
X15350000Y-10425000D02*
X15350000Y-10925000D01*
X15475000Y-10300000D02*
X15350000Y-10425000D01*
X15475000Y-8425000D02*
X15475000Y-10300000D01*
X15475000Y-8050000D02*
X15475000Y-8425000D01*
X15725000Y-7800000D02*
X15475000Y-8050000D01*
X15975000Y-7800000D02*
X15725000Y-7800000D01*
X23600000Y-10175000D02*
X23600000Y-10550000D01*
X15350000Y-10925000D02*
X15350000Y-11175000D01*
X18850000Y-11675000D02*
X18850000Y-11175000D01*
X21225000Y-8675000D02*
X21100000Y-8800000D01*
X23475000Y-11300000D02*
X23600000Y-11425000D01*
X21225000Y-10425000D02*
X21100000Y-10550000D01*
X21100000Y-9925000D02*
X21225000Y-10050000D01*
X21100000Y-8800000D02*
X21100000Y-9925000D01*
X23475000Y-10675000D02*
X23475000Y-11300000D01*
X23600000Y-10550000D02*
X23475000Y-10675000D01*
D18*
X10600000Y-9300000D02*
X10600000Y-11925000D01*
X10600000Y-11925000D02*
X10600000Y-12425000D01*
X10600000Y-12425000D02*
X10725000Y-12550000D01*
X22350000Y-9800000D02*
X22350000Y-9425000D01*
X21350000Y-11925000D02*
X21350000Y-9800000D01*
X12350000Y-9300000D02*
X12350000Y-7550000D01*
X12350000Y-7550000D02*
X12475000Y-7425000D01*
X9475000Y-9925000D02*
X9475000Y-9300000D01*
X4600000Y-8800000D02*
X4475000Y-8675000D01*
X4600000Y-9800000D02*
X4600000Y-8800000D01*
X4725000Y-9925000D02*
X4600000Y-9800000D01*
X8600000Y-9050000D02*
X8725000Y-8925000D01*
X8350000Y-9050000D02*
X8600000Y-9050000D01*
X8225000Y-8925000D02*
X8350000Y-9050000D01*
X8225000Y-7425000D02*
X8225000Y-8925000D01*
X5100000Y-8550000D02*
X5100000Y-8175000D01*
X5100000Y-8175000D02*
X5225000Y-8050000D01*
X7225000Y-7425000D02*
X6475000Y-7425000D01*
X7725000Y-7925000D02*
X7225000Y-7425000D01*
X7725000Y-9175000D02*
X7725000Y-7925000D01*
X8975000Y-8925000D02*
X8975000Y-9300000D01*
X4725000Y-9300000D02*
X4725000Y-9674936D01*
X4725000Y-9674936D02*
X4725064Y-9675000D01*
X4725000Y-9300000D02*
X4725000Y-8925000D01*
X5975000Y-10300000D02*
X5975000Y-9300000D01*
X8850000Y-9050000D02*
X8850000Y-10550000D01*
X8350000Y-10800000D02*
X8350000Y-9175000D01*
X12475000Y-10300000D02*
X12475000Y-12050000D01*
X10975000Y-13300000D02*
X10975000Y-12050000D01*
X12475000Y-8925000D02*
X12475000Y-10300000D01*
X15225000Y-10300000D02*
X15225000Y-9550000D01*
X4975000Y-8800000D02*
X4975000Y-9050000D01*
X18225000Y-9300000D02*
X18225000Y-10925000D01*
X7100000Y-8175000D02*
X7100000Y-8925000D01*
X7225000Y-8050000D02*
X7100000Y-8175000D01*
X7225000Y-7925000D02*
X7225000Y-8050000D01*
X18225000Y-8050000D02*
X18225000Y-9300000D01*
X19975000Y-11175000D02*
X19975000Y-10925000D01*
X19725000Y-11675000D02*
X19725000Y-11175000D01*
X24975000Y-8425000D02*
X24975000Y-8800000D01*
X25475000Y-8425000D02*
X24975000Y-8425000D01*
X25475000Y-8050000D02*
X25475000Y-8425000D01*
X21850000Y-8425000D02*
X21850000Y-7925000D01*
X23975000Y-8300000D02*
X23975000Y-7925000D01*
X17850000Y-10925000D02*
X17850000Y-9425000D01*
X18225000Y-10925000D02*
X18350000Y-10925000D01*
X18225000Y-11425000D02*
X18225000Y-10925000D01*
X18100000Y-11550000D02*
X18225000Y-11425000D01*
X18100000Y-11675000D02*
X18100000Y-11550000D01*
X15350000Y-8675000D02*
X15350000Y-9425000D01*
X12600000Y-7925000D02*
X12600000Y-8675000D01*
X5350000Y-8925000D02*
X5350000Y-11175000D01*
X18475000Y-10300000D02*
X18350000Y-10175000D01*
X18475000Y-11425000D02*
X18475000Y-10300000D01*
X18350000Y-11550000D02*
X18475000Y-11425000D01*
X18350000Y-10175000D02*
X18350000Y-8175000D01*
X18475000Y-8050000D02*
X18475000Y-7800000D01*
X18350000Y-8175000D02*
X18475000Y-8050000D01*
X18350000Y-11675000D02*
X18350000Y-11550000D01*
X14225000Y-10800000D02*
X14225000Y-8425000D01*
X14350000Y-8300000D02*
X14350000Y-7925000D01*
X14225000Y-8425000D02*
X14350000Y-8300000D01*
X13975000Y-10675000D02*
X13975000Y-9675000D01*
X13850000Y-10800000D02*
X13975000Y-10675000D01*
X13850000Y-10925000D02*
X13850000Y-10800000D01*
X14100000Y-9550000D02*
X13975000Y-9675000D01*
X14100000Y-8175000D02*
X14100000Y-9550000D01*
X17475000Y-7800000D02*
X17475000Y-8175000D01*
X14600000Y-10425000D02*
X14600000Y-10925000D01*
X15850000Y-8425000D02*
X15850000Y-10425000D01*
X16975000Y-7800000D02*
X16975000Y-8425000D01*
X14850000Y-10925000D02*
X14850000Y-10675000D01*
X15600000Y-8675000D02*
X15600000Y-10675000D01*
X16475000Y-7800000D02*
X16475000Y-8675000D01*
X16225000Y-9925000D02*
X16225000Y-9300000D01*
X14850000Y-10175000D02*
X14850000Y-9925000D01*
X16725000Y-9675000D02*
X16725000Y-9300000D01*
X14600000Y-10175000D02*
X14600000Y-9675000D01*
X13850000Y-10175000D02*
X13850000Y-9175000D01*
X18475000Y-8425000D02*
X18475000Y-9300000D01*
X20475000Y-8175000D02*
X20225000Y-8425000D01*
X21225000Y-8175000D02*
X20475000Y-8175000D01*
X21225000Y-7675000D02*
X21225000Y-8175000D01*
X18100000Y-10425000D02*
X18100000Y-9050000D01*
X20225000Y-8425000D02*
X20225000Y-9050000D01*
D19*
X9850000Y-9050000D02*
X9850000Y-10050000D01*
X9975000Y-8925000D02*
X9850000Y-9050000D01*
X7225000Y-9550000D02*
X7225000Y-9925000D01*
X12100000Y-12675000D02*
X11975000Y-12675000D01*
X12225000Y-12675000D02*
X12100000Y-12675000D01*
X12100000Y-12675000D02*
X12100000Y-10175000D01*
X11975000Y-12675000D02*
X11975000Y-13425000D01*
X12225000Y-13425000D02*
X12225000Y-12675000D01*
X5225000Y-12675000D02*
X5225000Y-13425000D01*
X4975000Y-12675000D02*
X4975000Y-13425000D01*
X4975000Y-12550000D02*
X4975000Y-12675000D01*
X4975000Y-12675000D02*
X5225000Y-12675000D01*
X5100000Y-11050000D02*
X5100000Y-12425000D01*
X5100000Y-12425000D02*
X4975000Y-12550000D01*
X4974936Y-10924936D02*
X5100000Y-11050000D01*
X4974936Y-10675000D02*
X4974936Y-10924936D01*
X4725064Y-11175000D02*
X4725000Y-11175000D01*
X4725000Y-11175000D02*
X4475000Y-10925000D01*
X4975000Y-9675000D02*
X4975000Y-9924936D01*
X4975000Y-9924936D02*
X4974936Y-9925000D01*
X7225000Y-9550000D02*
X7225000Y-9175000D01*
X7225000Y-9175000D02*
X7225000Y-9050000D01*
X7475064Y-9175000D02*
X7225000Y-9175000D01*
X19725000Y-10675000D02*
X19725000Y-10925000D01*
X19725000Y-9425000D02*
X19600000Y-9550000D01*
X22100000Y-10925000D02*
X22225000Y-11050000D01*
X22225000Y-11050000D02*
X22225000Y-11175000D01*
X22100000Y-10925000D02*
X22100000Y-10800000D01*
X25350000Y-11175000D02*
X25475000Y-11300000D01*
X25350000Y-10425000D02*
X25350000Y-11175000D01*
X25475000Y-10050000D02*
X25475000Y-10300000D01*
X21850000Y-7675000D02*
X21850000Y-7425000D01*
X21850000Y-7425000D02*
X24850000Y-7425000D01*
X24850000Y-7425000D02*
X24850000Y-8300000D01*
X24850000Y-8300000D02*
X24475000Y-8300000D01*
X24475000Y-8300000D02*
X24225000Y-8050000D01*
X19725000Y-9425000D02*
X19600000Y-9300000D01*
X19600000Y-8050000D02*
X19725000Y-7925000D01*
X19600000Y-9300000D02*
X19600000Y-8050000D01*
X19725000Y-7925000D02*
X19725000Y-7675000D01*
X18725000Y-11050000D02*
X18725000Y-9300000D01*
X7099936Y-9550000D02*
X7225000Y-9550000D01*
X4974936Y-9925000D02*
X4974936Y-10674936D01*
X19600000Y-9550000D02*
X19600000Y-10550000D01*
X19600000Y-10550000D02*
X19725000Y-10675000D01*
X21975000Y-9550000D02*
X22100000Y-9425000D01*
X21975000Y-10675000D02*
X21975000Y-9550000D01*
X22100000Y-10800000D02*
X21975000Y-10675000D01*
X25475000Y-10300000D02*
X25350000Y-10425000D01*
D18*
X19975000Y-8175000D02*
X19975000Y-7675000D01*
X5600000Y-9175000D02*
X5600000Y-7925000D01*
X6975000Y-8300000D02*
X6975000Y-7925000D01*
X5600000Y-9425000D02*
X5600000Y-9800000D01*
X5850000Y-9175000D02*
X5600000Y-9425000D01*
X5850000Y-8675000D02*
X5850000Y-9175000D01*
X6225000Y-8300000D02*
X5850000Y-8675000D01*
X5100000Y-8775000D02*
X5225000Y-8650000D01*
X5225000Y-8650000D02*
X5225000Y-8300000D01*
X5100000Y-9550000D02*
X5100000Y-8775000D01*
X5225000Y-9000000D02*
X5225000Y-10300000D01*
X5975000Y-9175000D02*
X5975000Y-9050000D01*
X5850000Y-9300000D02*
X5850000Y-10550000D01*
X5850000Y-9300000D02*
X5975000Y-9175000D01*
X6975000Y-9000000D02*
X6975000Y-9425000D01*
X22350000Y-8425000D02*
X22350000Y-8800000D01*
X22100000Y-7925000D02*
X22100000Y-8425000D01*
X22350000Y-7675000D02*
X22100000Y-7925000D01*
X24225000Y-10050000D02*
X24225000Y-9425000D01*
X24225000Y-9425000D02*
X24850000Y-9425000D01*
X19975000Y-9425000D02*
X19975000Y-9675000D01*
X22350000Y-11300000D02*
X22475000Y-11175000D01*
X22350000Y-11675000D02*
X22350000Y-11300000D01*
X19975000Y-9425000D02*
X19850000Y-9300000D01*
X19850000Y-9300000D02*
X19850000Y-8300000D01*
X20100000Y-8300000D02*
X20475000Y-7925000D01*
X19850000Y-8300000D02*
X20100000Y-8300000D01*
X20475000Y-7925000D02*
X20975000Y-7925000D01*
X20975000Y-7925000D02*
X20975000Y-7675000D01*
X24850000Y-9175000D02*
X25225000Y-8800000D01*
X24850000Y-9425000D02*
X24850000Y-9175000D01*
X19350000Y-9675000D02*
X19350000Y-11550000D01*
X22475000Y-11175000D02*
X22475000Y-10050000D01*
X22600000Y-8175000D02*
X22600000Y-7675000D01*
X23475000Y-7550000D02*
X23475000Y-9300000D01*
X23475000Y-9300000D02*
X23600000Y-9425000D01*
X24725000Y-7550000D02*
X23475000Y-7550000D01*
X24725000Y-8050000D02*
X24725000Y-7550000D01*
X24975000Y-10800000D02*
X24975000Y-10550000D01*
X24475000Y-11300000D02*
X24475000Y-10800000D01*
X20974936Y-10425000D02*
X21099936Y-10300000D01*
X21099936Y-10300000D02*
X21099936Y-10049936D01*
X20725000Y-11675000D02*
X20600000Y-11550000D01*
X24600000Y-11175000D02*
X24725000Y-11300000D01*
X24600000Y-10175000D02*
X24600000Y-11175000D01*
X24725000Y-10050000D02*
X24600000Y-10175000D01*
X20600000Y-11550000D02*
X20600000Y-10050000D01*
X21099936Y-10049936D02*
X20975000Y-9925000D01*
X20600000Y-10050000D02*
X20725000Y-9925000D01*
X24850000Y-11175000D02*
X24975000Y-11300000D01*
X24850000Y-10425000D02*
X24850000Y-11175000D01*
X24975000Y-10050000D02*
X24975000Y-10300000D01*
X21600000Y-10425000D02*
X21600000Y-10675000D01*
X24975000Y-10300000D02*
X24850000Y-10425000D01*
X25225000Y-10550000D02*
X25225000Y-10300000D01*
X25100000Y-10175000D02*
X25100000Y-9425000D01*
X25225000Y-10300000D02*
X25100000Y-10175000D01*
X24475000Y-10050000D02*
X24475000Y-9550000D01*
X24975000Y-9550000D02*
X24975000Y-9300000D01*
X24475000Y-9550000D02*
X24975000Y-9550000D01*
X20975000Y-9675000D02*
X20975000Y-9425000D01*
X23100000Y-9675000D02*
X23100000Y-10175000D01*
X23225000Y-9550000D02*
X23100000Y-9675000D01*
X23225000Y-8800000D02*
X23225000Y-9550000D01*
X24600000Y-8550000D02*
X24475000Y-8550000D01*
X24600000Y-9175000D02*
X24600000Y-8550000D01*
X22850000Y-9800000D02*
X22850000Y-10175000D01*
X22850000Y-7675000D02*
X22850000Y-8175000D01*
X22850000Y-8175000D02*
X22725000Y-8300000D01*
X22725000Y-8300000D02*
X22725000Y-10800000D01*
X20725000Y-11175000D02*
X20725000Y-10925000D01*
X20475000Y-11675000D02*
X20475000Y-11175000D01*
X20725000Y-10675000D02*
X20725000Y-10925000D01*
X19975000Y-10175000D02*
X20225000Y-10425000D01*
X20225000Y-10425000D02*
X20225000Y-10675000D01*
X20850000Y-11550000D02*
X20975000Y-11675000D01*
X20850000Y-9050000D02*
X20850000Y-11550000D01*
X20975000Y-11425000D02*
X20975000Y-10925000D01*
X23350000Y-9425000D02*
X23350000Y-9800000D01*
X22600000Y-10175000D02*
X22600000Y-10675000D01*
X23100000Y-10925000D02*
X23100000Y-10675000D01*
X23225000Y-10550000D02*
X23100000Y-10675000D01*
X23225000Y-9925000D02*
X23225000Y-10550000D01*
X23350000Y-9800000D02*
X23225000Y-9925000D01*
X20725000Y-7425000D02*
X20725000Y-7675000D01*
X19100000Y-7425000D02*
X20725000Y-7425000D01*
X19100000Y-10175000D02*
X19100000Y-7425000D01*
X17975000Y-10800000D02*
X17975000Y-10175000D01*
X18100000Y-10925000D02*
X17975000Y-10800000D01*
X6350000Y-7300000D02*
X6350000Y-11175000D01*
X11350000Y-11550000D02*
X11350000Y-7300000D01*
X11350000Y-7300000D02*
X6350000Y-7300000D01*
X17600000Y-11175000D02*
X17350000Y-11425000D01*
X17600000Y-10925000D02*
X17600000Y-11175000D01*
X23100000Y-11175000D02*
X23100000Y-11675000D01*
X22850000Y-10925000D02*
X22850000Y-10425000D01*
X13600000Y-9800000D02*
X13600000Y-9675000D01*
X13475000Y-9925000D02*
X13600000Y-9800000D01*
X13475000Y-10800000D02*
X13475000Y-9925000D01*
X8475000Y-10925000D02*
X8600000Y-10800000D01*
X8350000Y-10925000D02*
X8475000Y-10925000D01*
X8225000Y-10800000D02*
X8350000Y-10925000D01*
X8225000Y-10050000D02*
X8225000Y-10800000D01*
X7100000Y-9925000D02*
X7100000Y-10050000D01*
X6850000Y-9675000D02*
X7100000Y-9925000D01*
X6850000Y-9550000D02*
X6850000Y-9675000D01*
X6850000Y-9550000D02*
X6850000Y-8175000D01*
X6100000Y-7425000D02*
X6100000Y-8175000D01*
X5600000Y-7425000D02*
X6100000Y-7425000D01*
X4600000Y-8425000D02*
X5600000Y-7425000D01*
X4475000Y-8425000D02*
X4600000Y-8425000D01*
X15475000Y-10550000D02*
X15475000Y-10800000D01*
X15475000Y-10800000D02*
X15725000Y-10800000D01*
X15725000Y-10800000D02*
X15850000Y-10675000D01*
X14975000Y-9550000D02*
X14975000Y-10550000D01*
X19475000Y-10925000D02*
X19600000Y-11050000D01*
X19475000Y-10675000D02*
X19475000Y-10925000D01*
X20475000Y-9800000D02*
X20475000Y-10175000D01*
X20975000Y-8425000D02*
X20975000Y-8675000D01*
X20600000Y-8675000D02*
X20600000Y-9675000D01*
X20600000Y-9675000D02*
X20475000Y-9800000D01*
X20725000Y-10425000D02*
X20725000Y-10175000D01*
X21600000Y-9675000D02*
X21600000Y-10175000D01*
X21350000Y-9425000D02*
X21600000Y-9675000D01*
X21225000Y-9425000D02*
X21350000Y-9425000D01*
X20475000Y-8425000D02*
X20475000Y-9425000D01*
X22850000Y-9425000D02*
X22850000Y-8925000D01*
X6100000Y-8800000D02*
X6100000Y-9925000D01*
X16725000Y-11550000D02*
X16725000Y-9925000D01*
X16475000Y-11800000D02*
X16725000Y-11550000D01*
X13100000Y-11800000D02*
X16475000Y-11800000D01*
X12850000Y-11550000D02*
X13100000Y-11800000D01*
X12850000Y-10550000D02*
X12850000Y-11550000D01*
X9100000Y-10550000D02*
X9100000Y-8675000D01*
X9100000Y-8675000D02*
X8475000Y-8675000D01*
X8475000Y-8675000D02*
X8475000Y-8925000D01*
X19475000Y-8800000D02*
X19475000Y-10050000D01*
X6225000Y-13425000D02*
X6225000Y-10300000D01*
X6725000Y-10800000D02*
X6725000Y-10300000D01*
X6850000Y-10925000D02*
X6725000Y-10800000D01*
X6600000Y-8550000D02*
X6600000Y-10425000D01*
X15975000Y-8800000D02*
X15975000Y-8550000D01*
X16600000Y-8800000D02*
X15975000Y-8800000D01*
X16725000Y-8925000D02*
X16600000Y-8800000D01*
X20725000Y-8425000D02*
X20725000Y-8925000D01*
X6100000Y-10425000D02*
X6100000Y-10675000D01*
X6600000Y-10925000D02*
X6600000Y-10675000D01*
X15350000Y-7300000D02*
X16975000Y-7300000D01*
X16975000Y-7425000D02*
X16975000Y-7300000D01*
X15350000Y-7675000D02*
X15350000Y-7300000D01*
X11225000Y-7425000D02*
X11225000Y-7675000D01*
X18600000Y-10925000D02*
X18600000Y-10550000D01*
X15729289Y-9300000D02*
X15729289Y-10545711D01*
X15729289Y-10545711D02*
X15725000Y-10550000D01*
X20350000Y-11300000D02*
X20350000Y-9925000D01*
X22100000Y-11675000D02*
X22100000Y-11300000D01*
X17725000Y-9925000D02*
X17725000Y-10175000D01*
X17725000Y-9300000D02*
X17725000Y-9925000D01*
X19975000Y-8675000D02*
X19975000Y-9175000D01*
X19975000Y-8425000D02*
X19975000Y-8675000D01*
X16725000Y-8050000D02*
X16725000Y-8675000D01*
X10225000Y-8050000D02*
X10225000Y-7675000D01*
X10225000Y-7425000D02*
X10225000Y-7675000D01*
X6725000Y-8300000D02*
X6725000Y-7550000D01*
X21850000Y-10675000D02*
X21850000Y-9175000D01*
X9975000Y-10175000D02*
X9975000Y-9925000D01*
X9850000Y-10300000D02*
X9975000Y-10175000D01*
X9850000Y-11300000D02*
X9850000Y-10300000D01*
X6600000Y-11675000D02*
X6600000Y-11300000D01*
X5975000Y-13300000D02*
X5975000Y-11675000D01*
X6475000Y-11300000D02*
X6475000Y-9675000D01*
X6350000Y-11425000D02*
X6475000Y-11300000D01*
X6350000Y-12550000D02*
X6350000Y-11425000D01*
X10725000Y-8425000D02*
X10725000Y-7425000D01*
X5725000Y-9050000D02*
X5725000Y-8550000D01*
X5475000Y-8300000D02*
X5475000Y-7800000D01*
X9975000Y-8050000D02*
X9975000Y-7400000D01*
X6475000Y-8050000D02*
X6475000Y-8250000D01*
X6475000Y-8300000D02*
X6475000Y-8050000D01*
X5725000Y-8300000D02*
X5725000Y-7675000D01*
X9725000Y-7675000D02*
X9725000Y-7425000D01*
X5475000Y-8675000D02*
X5475000Y-9050000D01*
X9475000Y-7425000D02*
X9475000Y-8675000D01*
X19725000Y-10425000D02*
X19850000Y-10300000D01*
X19850000Y-10300000D02*
X19850000Y-9925000D01*
X8100000Y-9050000D02*
X8100000Y-10800000D01*
X21475000Y-11425000D02*
X21475000Y-10050000D01*
X18975000Y-11300000D02*
X18975000Y-10425000D01*
X8850000Y-11300000D02*
X8975000Y-11175000D01*
X8600000Y-11300000D02*
X8850000Y-11300000D01*
X8100000Y-10800000D02*
X8600000Y-11300000D01*
X19975000Y-9800000D02*
X20225000Y-9800000D01*
X19850000Y-9925000D02*
X19975000Y-9800000D01*
X9975000Y-10425000D02*
X9975000Y-11425000D01*
X9975000Y-12425000D02*
X9975000Y-11425000D01*
X10225000Y-12675000D02*
X10225000Y-13425000D01*
X9975000Y-12425000D02*
X10225000Y-12675000D01*
X11600000Y-10300000D02*
X11600000Y-7550000D01*
X11600000Y-7550000D02*
X11725000Y-7425000D01*
X10225000Y-12425000D02*
X10225000Y-11425000D01*
X10475000Y-12675000D02*
X10475000Y-13425000D01*
X10225000Y-12425000D02*
X10475000Y-12675000D01*
X10225000Y-10175000D02*
X10225000Y-11425000D01*
X10850000Y-7550000D02*
X10850000Y-10050000D01*
X10850000Y-10050000D02*
X10725000Y-10175000D01*
X10100000Y-10050000D02*
X10225000Y-9925000D01*
X10100000Y-10300000D02*
X10100000Y-10050000D01*
X7725000Y-12550000D02*
X7725000Y-10300000D01*
X10225000Y-8925000D02*
X10225000Y-9675000D01*
X13350000Y-9675000D02*
X13350000Y-10175000D01*
X10225000Y-9925000D02*
X10225000Y-9675000D01*
X10475000Y-9925000D02*
X10475000Y-9550000D01*
X7600000Y-11800000D02*
X7600000Y-9550000D01*
X7475000Y-11925000D02*
X7600000Y-11800000D01*
X7475000Y-12550000D02*
X7475000Y-11925000D01*
X10475000Y-8925000D02*
X10475000Y-9925000D01*
X14100000Y-10175000D02*
X14100000Y-9800000D01*
X7350000Y-10175000D02*
X7350000Y-9425000D01*
X7225000Y-10300000D02*
X7350000Y-10175000D01*
X10725000Y-8925000D02*
X10725000Y-9550000D01*
X14350000Y-9550000D02*
X14350000Y-10175000D01*
X10725000Y-9925000D02*
X10725000Y-9550000D01*
X7225000Y-12550000D02*
X7225000Y-10300000D01*
X7850000Y-8800000D02*
X7850000Y-12050000D01*
X6975000Y-12550000D02*
X6975000Y-12050000D01*
X10975000Y-8925000D02*
X10975000Y-9425000D01*
X15100000Y-9425000D02*
X15100000Y-10175000D01*
X10975000Y-9925000D02*
X10975000Y-9425000D01*
X10100000Y-11925000D02*
X10100000Y-10925000D01*
X8100000Y-12550000D02*
X8100000Y-12050000D01*
X11225000Y-10925000D02*
X11225000Y-9925000D01*
X11225000Y-8925000D02*
X11225000Y-9925000D01*
X14475000Y-10800000D02*
X14475000Y-9925000D01*
X10850000Y-11925000D02*
X10850000Y-12175000D01*
X10975000Y-11800000D02*
X10850000Y-11925000D01*
X10975000Y-11425000D02*
X10975000Y-11800000D01*
X8350000Y-12550000D02*
X8350000Y-12300000D01*
X10975000Y-10175000D02*
X10975000Y-11425000D01*
X11475000Y-8925000D02*
X11475000Y-10175000D01*
X11475000Y-10175000D02*
X11475000Y-10675000D01*
X8600000Y-11800000D02*
X8600000Y-12550000D01*
X11725000Y-8925000D02*
X11725000Y-10425000D01*
X14100000Y-10925000D02*
X14100000Y-10425000D01*
X10725000Y-11425000D02*
X10725000Y-10425000D01*
X10725000Y-11425000D02*
X10725000Y-11800000D01*
X8850000Y-12550000D02*
X8850000Y-12050000D01*
X11975000Y-8925000D02*
X11975000Y-11175000D01*
X10475000Y-11425000D02*
X10475000Y-12050000D01*
X10475000Y-11175000D02*
X10475000Y-11425000D01*
X13350000Y-10925000D02*
X13350000Y-11175000D01*
X20100000Y-9300000D02*
X20100000Y-8550000D01*
X20225000Y-9425000D02*
X20100000Y-9300000D01*
X16225000Y-7800000D02*
X16225000Y-8550000D01*
X13100000Y-10550000D02*
X13100000Y-10925000D01*
X20725000Y-9425000D02*
X20725000Y-9675000D01*
X14725000Y-9800000D02*
X14725000Y-10550000D01*
X8475000Y-11425000D02*
X8475000Y-13300000D01*
X8725000Y-11425000D02*
X8725000Y-13300000D01*
X8975000Y-11425000D02*
X8975000Y-13300000D01*
X9225000Y-11425000D02*
X9225000Y-13300000D01*
X9475000Y-11425000D02*
X9475000Y-13300000D01*
X9725000Y-12425000D02*
X9725000Y-11675000D01*
X9725000Y-12425000D02*
X9975000Y-12675000D01*
X9975000Y-12675000D02*
X9975000Y-13425000D01*
X17100000Y-10300000D02*
X17100000Y-11675000D01*
X7100000Y-11175000D02*
X7100000Y-11675000D01*
X9725000Y-11675000D02*
X9725000Y-11425000D01*
X6850000Y-11175000D02*
X7100000Y-11175000D01*
X7350000Y-10675000D02*
X7350000Y-11925000D01*
X6475000Y-12675000D02*
X6475000Y-13425000D01*
X6600000Y-12550000D02*
X6475000Y-12675000D01*
X6600000Y-11925000D02*
X6600000Y-12550000D01*
X9725000Y-9925000D02*
X9725000Y-10675000D01*
X7975000Y-13300000D02*
X7975000Y-10925000D01*
X8975000Y-9925000D02*
X8975000Y-10925000D01*
X8225000Y-13300000D02*
X8225000Y-11175000D01*
X8725000Y-9925000D02*
X8725000Y-11175000D01*
X12725000Y-11800000D02*
X12975000Y-12050000D01*
X24225000Y-10800000D02*
X24475000Y-10550000D01*
X12975000Y-12050000D02*
X24225000Y-12050000D01*
X24225000Y-12050000D02*
X24225000Y-10800000D01*
X11350000Y-12425000D02*
X11350000Y-11800000D01*
X5725000Y-13425000D02*
X5725000Y-12425000D01*
M02*
